<?xml version="1.0" standalone="no"?>
<!DOCTYPE svg PUBLIC "-//W3C//DTD SVG 20010904//EN"
 "http://www.w3.org/TR/2001/REC-SVG-20010904/DTD/svg10.dtd">
<svg version="1.0" xmlns="http://www.w3.org/2000/svg"
 width="1224.000000pt" height="1024.000000pt" viewBox="0 0 1224.000000 1024.000000"
 preserveAspectRatio="xMidYMid meet">

<g transform="translate(0.000000,1024.000000) scale(0.100000,-0.100000)"
fill="#000000" stroke="none">
<path d="M5355 9694 c-400 -22 -831 -103 -1200 -227 -234 -79 -325 -117 -570
-238 -460 -227 -809 -479 -1180 -853 -558 -561 -937 -1214 -1145 -1973 -178
-648 -203 -1401 -69 -2052 10 -52 18 -95 17 -96 -2 -1 -52 -28 -113 -60 -207
-109 -585 -332 -585 -345 0 -3 24 -14 54 -24 l54 -18 128 70 c71 38 211 111
311 161 l182 91 17 -58 c213 -766 575 -1397 1123 -1964 l134 -139 -24 -24
c-13 -13 -172 -161 -354 -330 -308 -286 -331 -309 -338 -348 -4 -23 -6 -54 -5
-69 3 -25 15 -16 183 134 292 261 623 548 632 548 4 0 46 -32 93 -71 530 -442
1138 -751 1800 -914 194 -48 448 -90 653 -110 193 -18 590 -21 777 -5 689 58
1353 270 1929 617 1251 753 2049 2043 2161 3495 16 202 8 664 -15 848 -48 393
-130 728 -262 1078 l-66 175 99 90 c159 145 602 592 705 712 423 494 725 982
893 1440 l26 70 -33 -40 c-442 -545 -984 -1029 -1622 -1450 -219 -144 -374
-240 -378 -234 -1 2 -29 45 -61 94 -283 435 -644 818 -1073 1139 -640 479
-1408 778 -2211 860 -152 16 -532 27 -667 20z m255 -343 c20 -38 -13 -71 -51
-51 -21 12 -25 40 -7 58 18 18 46 14 58 -7z m900 -429 c22 -27 32 -31 75 -33
l50 -1 -48 -10 c-57 -12 -97 -47 -97 -86 0 -15 -5 -34 -10 -42 -7 -11 -10 -4
-10 27 0 61 -33 91 -102 95 l-53 3 50 9 c70 13 105 49 106 113 l2 48 6 -46 c4
-25 17 -59 31 -77z m-1164 -57 c15 -23 15 -27 0 -50 -10 -15 -26 -25 -41 -25
-15 0 -31 10 -41 25 -15 23 -15 27 0 50 10 15 26 25 41 25 15 0 31 -10 41 -25z
m502 -51 c30 -21 29 -59 -3 -80 -23 -15 -27 -15 -50 0 -32 21 -33 59 -3 80 12
9 25 16 28 16 3 0 16 -7 28 -16z m-1098 -319 c26 -31 -13 -82 -44 -56 -19 16
-21 57 -3 64 22 9 34 7 47 -8z m704 -1 c21 -8 21 -48 0 -65 -31 -26 -70 25
-44 56 14 17 21 18 44 9z m-596 -96 c-4 -26 -30 -43 -52 -35 -21 8 -21 53 1
66 25 13 55 -5 51 -31z m110 -67 c5 -32 -23 -54 -49 -40 -19 10 -26 49 -12 63
4 4 19 6 33 4 18 -2 26 -10 28 -27z m880 -53 c17 -17 15 -43 -4 -59 -31 -26
-70 25 -44 56 15 18 32 19 48 3z m-1048 -89 c15 -27 -5 -51 -39 -47 -29 3 -39
31 -21 53 18 21 48 18 60 -6z m-525 -30 c521 -105 1185 -521 1828 -1149 247
-240 560 -591 744 -835 42 -55 79 -103 83 -108 10 -12 264 -51 291 -44 13 3
44 23 67 42 l42 37 0 -211 c0 -116 -2 -211 -5 -211 -2 0 -21 12 -42 26 -56 38
-156 87 -147 72 4 -7 33 -51 64 -98 201 -301 412 -688 550 -1008 l58 -132 17
26 c9 15 26 56 36 93 46 156 234 850 274 1006 l43 170 168 122 169 122 194 -2
194 -2 258 -695 c142 -382 273 -733 291 -780 26 -69 43 -96 89 -142 l57 -58
-490 0 -490 0 46 52 c26 29 53 72 62 94 15 39 15 46 -4 115 -11 41 -25 86 -31
102 l-11 27 -274 0 -274 0 -10 -47 c-41 -194 -40 -218 13 -288 19 -25 35 -47
35 -50 0 -3 -69 -5 -154 -5 l-154 0 48 -148 c186 -571 207 -1026 63 -1319
-149 -305 -464 -376 -1013 -227 -141 38 -337 113 -344 131 -11 27 1 26 71 -2
350 -142 694 -186 923 -119 79 23 130 55 189 119 88 97 150 229 182 390 20 99
17 381 -5 510 -26 156 -72 336 -129 505 l-52 155 -78 3 -79 3 39 30 c21 17 47
37 57 44 22 16 25 10 -71 219 -123 270 -306 592 -519 911 -158 238 -153 233
-243 245 -91 13 -214 -1 -270 -29 -114 -58 -107 -167 14 -239 27 -17 111 -52
185 -77 133 -46 278 -109 313 -137 16 -12 9 -19 -88 -78 -58 -36 -190 -118
-292 -183 l-187 -118 -90 31 c-294 102 -428 247 -451 485 -17 173 61 349 201
455 124 94 242 125 440 118 l132 -5 -86 110 c-785 997 -1757 1745 -2450 1887
-122 24 -297 27 -391 5 -214 -51 -365 -206 -431 -445 -127 -462 70 -1244 519
-2054 45 -82 79 -152 74 -156 -4 -4 -26 -13 -47 -20 -48 -16 -42 -24 -143 170
-262 496 -441 991 -514 1425 -30 177 -33 488 -5 615 72 335 266 526 578 570
87 12 243 3 363 -21z m2246 -249 c26 -15 25 -64 -2 -84 -23 -16 -47 -12 -66
12 -18 22 -16 39 7 62 23 23 33 24 61 10z m-2109 -375 c21 -20 44 -31 76 -36
l47 -6 -45 -2 c-58 -1 -95 -38 -108 -107 l-10 -49 -1 47 c-1 60 -31 92 -98
106 l-48 10 45 1 c39 2 49 6 73 38 18 24 28 50 29 77 l1 41 4 -45 c3 -34 12
-52 35 -75z m-474 63 c18 -18 14 -46 -8 -58 -28 -15 -65 22 -50 50 12 22 40
26 58 8z m160 -190 c28 -28 1 -75 -38 -63 -33 11 -21 75 15 75 6 0 16 -5 23
-12z m-1303 -1785 c148 -252 288 -489 312 -528 l43 -69 0 425 0 425 -26 53
c-15 29 -49 75 -76 102 l-49 49 252 0 251 0 -37 -41 c-20 -23 -48 -64 -61 -93
l-24 -51 0 -648 c0 -740 -7 -679 92 -782 32 -32 58 -61 58 -62 0 -2 -161 -2
-357 -1 l-358 3 -91 150 c-50 83 -192 320 -315 528 l-224 378 -3 -427 c-3
-495 -7 -470 101 -576 l60 -58 -273 0 -272 0 50 45 c30 27 63 70 79 103 l27
56 -2 635 c-2 566 -5 638 -19 670 -9 20 -47 66 -85 104 l-68 67 373 0 373 0
269 -457z m2368 297 c32 -85 96 -258 143 -385 391 -1055 376 -1019 421 -1066
l24 -27 -29 -21 c-30 -21 -38 -21 -467 -21 l-438 0 42 45 c22 24 51 65 63 89
21 44 21 45 4 116 -10 39 -24 87 -32 106 l-14 34 -200 0 c-110 0 -200 -3 -200
-7 0 -14 428 -557 572 -725 l49 -57 -56 -37 c-30 -20 -57 -35 -59 -33 -1 2
-18 27 -36 54 -19 28 -95 124 -170 215 -182 220 -358 449 -431 560 -16 25 -16
24 -32 -45 -37 -162 -34 -188 30 -273 14 -18 23 -35 21 -38 -3 -2 -121 -3
-262 -2 l-258 3 78 65 c43 36 88 79 99 96 11 17 47 125 78 240 197 715 277
1018 277 1049 0 35 -46 118 -95 173 l-47 52 433 -2 434 -3 58 -155z m2977 130
c-19 -17 -37 -30 -40 -30 -4 0 -19 14 -35 30 l-29 30 70 0 69 -1 -35 -29z
m-672 -998 c31 -65 37 -89 40 -163 4 -81 2 -93 -25 -151 -57 -120 -178 -227
-348 -309 -147 -70 -200 -81 -395 -81 -177 0 -296 16 -397 54 -35 13 -67 18
-89 15 -45 -8 -118 -59 -155 -110 l-30 -41 3 88 3 87 147 95 147 96 70 -17
c98 -24 301 -17 386 13 70 25 125 77 125 118 0 42 -36 90 -97 128 l-56 35 259
171 259 171 59 -62 c37 -39 72 -90 94 -137z m-1323 -286 c22 -19 37 -37 35
-39 -16 -13 -100 -67 -104 -67 -3 0 -6 36 -6 80 0 91 -1 91 75 26z m-2144
-472 c9 -11 10 -20 2 -32 -24 -39 -82 -15 -68 28 8 24 47 27 66 4z m4496 -260
c16 -41 -46 -73 -67 -34 -9 16 -8 25 1 36 16 19 58 18 66 -2z m564 -159 c9 -3
20 -12 23 -20 3 -10 20 -15 46 -15 25 0 39 -4 35 -10 -3 -5 -20 -10 -36 -10
-49 0 -89 -47 -90 -107 l-1 -48 -10 53 c-13 72 -44 102 -106 103 l-47 1 46 8
c67 12 99 47 100 113 l2 52 10 -57 c7 -40 16 -59 28 -63z m-3753 -73 c42 -37
140 -116 217 -176 215 -168 235 -190 235 -261 0 -49 -15 -74 -56 -91 -103 -43
-257 57 -449 290 -121 149 -160 205 -147 218 11 11 115 87 120 88 2 0 38 -30
80 -68z m3264 21 c22 -20 23 -41 1 -65 -32 -36 -83 -17 -83 32 0 48 45 67 82
33z m-654 -25 c22 -22 14 -67 -14 -80 -45 -21 -87 21 -66 66 13 28 58 36 80
14z m1292 -248 c11 -11 20 -27 20 -35 0 -16 -34 -55 -48 -55 -20 0 -52 34 -52
55 0 21 32 55 52 55 5 0 17 -9 28 -20z m-1639 -16 c17 -21 0 -49 -31 -49 -31
0 -48 28 -31 49 8 9 21 16 31 16 10 0 23 -7 31 -16z m348 -58 c21 -25 9 -69
-21 -80 -50 -17 -89 42 -52 78 19 20 58 21 73 2z m-3911 -22 c37 -26 20 -94
-24 -94 -19 0 -54 36 -54 55 0 16 34 55 48 55 4 0 18 -7 30 -16z m4961 -3 c14
-26 -8 -54 -39 -49 -25 3 -36 27 -26 54 8 20 53 17 65 -5z m-6133 -236 c15
-23 15 -27 0 -50 -10 -15 -26 -25 -41 -25 -15 0 -31 10 -41 25 -15 23 -15 27
0 50 10 15 26 25 41 25 15 0 31 -10 41 -25z m-506 -60 c26 -31 -13 -82 -44
-56 -19 16 -21 57 -3 64 22 9 34 7 47 -8z m6235 -71 c19 -20 16 -43 -7 -58
-21 -13 -51 2 -56 26 -3 16 23 48 38 48 5 0 16 -7 25 -16z m-1014 -44 c36 -20
13 -76 -28 -68 -22 4 -29 43 -13 64 15 17 16 17 41 4z m-4015 -51 c20 -23 11
-51 -20 -57 -39 -8 -63 47 -28 67 24 14 26 14 48 -10z m5134 -99 c16 -15 48
-32 72 -37 l43 -11 -42 -1 c-57 -1 -91 -35 -102 -104 l-9 -52 -1 49 c-1 64
-34 98 -106 107 l-50 6 46 2 c61 1 99 39 108 108 l6 48 3 -44 c3 -33 10 -51
32 -71z m-5919 80 c36 -20 14 -76 -27 -68 -31 6 -40 34 -20 57 22 24 21 24 47
11z m6157 -102 c28 -28 1 -75 -37 -63 -11 3 -23 15 -26 26 -12 38 35 65 63 37z
m-5942 -53 c15 -23 15 -27 0 -50 -10 -15 -26 -25 -41 -25 -15 0 -31 10 -41 25
-15 23 -15 27 0 50 10 15 26 25 41 25 15 0 31 -10 41 -25z m1352 3 c17 -17 15
-63 -2 -78 -23 -18 -59 -8 -75 22 -14 24 -14 28 3 47 21 23 56 27 74 9z m1936
-30 c8 -13 8 -23 0 -35 -15 -24 -44 -23 -61 3 -12 19 -12 24 3 38 20 20 43 18
58 -6z m-886 -310 c35 -35 -10 -81 -48 -50 -19 16 -21 22 -11 40 13 24 40 29
59 10z m-1517 -8 c21 -12 25 -40 7 -58 -34 -34 -79 7 -52 46 17 25 19 26 45
12z m519 -105 c19 -23 3 -57 -27 -53 -34 4 -51 31 -34 52 17 20 45 21 61 1z
m-379 -415 c25 -24 39 -30 77 -31 l47 -1 -49 -10 c-62 -11 -95 -45 -106 -107
l-8 -46 -1 49 c-1 61 -32 88 -106 96 l-50 6 50 8 c65 11 94 42 103 110 l7 51
3 -47 c2 -37 10 -54 33 -78z m3759 72 c0 -42 -51 -57 -71 -20 -10 18 -8 24 11
40 26 21 60 9 60 -20z"/>
<path d="M8273 5302 l-91 -297 211 -3 c115 -1 212 -1 214 1 3 4 -226 577 -237
589 -3 5 -47 -126 -97 -290z"/>
<path d="M4560 5590 c0 -12 -49 -173 -165 -547 l-13 -43 214 0 c118 0 214 3
214 6 0 3 -27 69 -59 147 -33 78 -85 207 -117 287 -56 142 -74 179 -74 150z"/>
</g>
</svg>
